<?xml version="1.0" encoding="UTF-8" standalone="no"?>
<!DOCTYPE svg PUBLIC "-//W3C//DTD SVG 1.1//EN"
 "http://www.w3.org/Graphics/SVG/1.1/DTD/svg11.dtd">
<!-- Generated by graphviz version 2.43.0 (0)
 -->
<!-- Title: cutest Pages: 1 -->
<svg width="786pt" height="203pt"
 viewBox="0.00 0.00 786.00 203.00" xmlns="http://www.w3.org/2000/svg" xmlns:xlink="http://www.w3.org/1999/xlink">
<g id="graph0" class="graph" transform="scale(1 1) rotate(0) translate(4 199)">
<title>cutest</title>
<polygon fill="white" stroke="transparent" points="-4,4 -4,-199 782,-199 782,4 -4,4"/>
<!-- value_140452357286672 -->
<g id="node1" class="node">
<title>value_140452357286672</title>
<path fill="#dbeafe" stroke="#2563eb" d="M766,-79.5C766,-79.5 728,-79.5 728,-79.5 722,-79.5 716,-73.5 716,-67.5 716,-67.5 716,-55.5 716,-55.5 716,-49.5 722,-43.5 728,-43.5 728,-43.5 766,-43.5 766,-43.5 772,-43.5 778,-49.5 778,-55.5 778,-55.5 778,-67.5 778,-67.5 778,-73.5 772,-79.5 766,-79.5"/>
<text text-anchor="middle" x="747" y="-57.8" font-family="Helvetica,sans-Serif" font-size="14.00">Tensor</text>
</g>
<!-- op_140452325488832 -->
<g id="node2" class="node">
<title>op_140452325488832</title>
<polygon fill="#dcfce7" stroke="#16a34a" points="637,-99.5 594,-61.5 637,-23.5 680,-61.5 637,-99.5"/>
<text text-anchor="middle" x="637" y="-65.3" font-family="Helvetica,sans-Serif" font-size="14.00">Op</text>
<text text-anchor="middle" x="637" y="-50.3" font-family="Helvetica,sans-Serif" font-size="14.00">add</text>
</g>
<!-- op_140452325488832&#45;&gt;value_140452357286672 -->
<g id="edge7" class="edge">
<title>op_140452325488832&#45;&gt;value_140452357286672</title>
<path fill="none" stroke="black" d="M680.06,-61.5C688.48,-61.5 697.3,-61.5 705.65,-61.5"/>
<polygon fill="black" stroke="black" points="705.91,-65 715.91,-61.5 705.91,-58 705.91,-65"/>
</g>
<!-- value_140452319712688 -->
<g id="node3" class="node">
<title>value_140452319712688</title>
<path fill="#dbeafe" stroke="#2563eb" d="M546,-124C546,-124 413,-124 413,-124 407,-124 401,-118 401,-112 401,-112 401,-83 401,-83 401,-77 407,-71 413,-71 413,-71 546,-71 546,-71 552,-71 558,-77 558,-83 558,-83 558,-112 558,-112 558,-118 552,-124 546,-124"/>
<text text-anchor="middle" x="479.5" y="-108.8" font-family="Helvetica,sans-Serif" font-size="14.00">Tensor</text>
<text text-anchor="middle" x="479.5" y="-93.8" font-family="Helvetica,sans-Serif" font-size="14.00">shape=2x4</text>
<text text-anchor="middle" x="479.5" y="-78.8" font-family="Helvetica,sans-Serif" font-size="14.00">dtype=torch.float32</text>
</g>
<!-- value_140452319712688&#45;&gt;op_140452325488832 -->
<g id="edge5" class="edge">
<title>value_140452319712688&#45;&gt;op_140452325488832</title>
<path fill="none" stroke="black" d="M558.25,-79.5C570.1,-76.76 581.96,-74.01 592.71,-71.52"/>
<polygon fill="black" stroke="black" points="593.69,-74.89 602.64,-69.22 592.11,-68.07 593.69,-74.89"/>
</g>
<!-- op_140452325486816 -->
<g id="node4" class="node">
<title>op_140452325486816</title>
<polygon fill="#dcfce7" stroke="#16a34a" points="279,-135.5 193,-97.5 279,-59.5 365,-97.5 279,-135.5"/>
<text text-anchor="middle" x="279" y="-101.3" font-family="Helvetica,sans-Serif" font-size="14.00">Op</text>
<text text-anchor="middle" x="279" y="-86.3" font-family="Helvetica,sans-Serif" font-size="14.00">rms_norm</text>
</g>
<!-- op_140452325486816&#45;&gt;value_140452319712688 -->
<g id="edge4" class="edge">
<title>op_140452325486816&#45;&gt;value_140452319712688</title>
<path fill="none" stroke="black" d="M365.05,-97.5C373.5,-97.5 382.09,-97.5 390.58,-97.5"/>
<polygon fill="black" stroke="black" points="390.85,-101 400.85,-97.5 390.85,-94 390.85,-101"/>
</g>
<!-- value_140452321373200 -->
<g id="node5" class="node">
<title>value_140452321373200</title>
<path fill="#dbeafe" stroke="#2563eb" d="M145,-195C145,-195 12,-195 12,-195 6,-195 0,-189 0,-183 0,-183 0,-154 0,-154 0,-148 6,-142 12,-142 12,-142 145,-142 145,-142 151,-142 157,-148 157,-154 157,-154 157,-183 157,-183 157,-189 151,-195 145,-195"/>
<text text-anchor="middle" x="78.5" y="-179.8" font-family="Helvetica,sans-Serif" font-size="14.00">Tensor</text>
<text text-anchor="middle" x="78.5" y="-164.8" font-family="Helvetica,sans-Serif" font-size="14.00">shape=4</text>
<text text-anchor="middle" x="78.5" y="-149.8" font-family="Helvetica,sans-Serif" font-size="14.00">dtype=torch.float32</text>
</g>
<!-- value_140452321373200&#45;&gt;op_140452325486816 -->
<g id="edge1" class="edge">
<title>value_140452321373200&#45;&gt;op_140452325486816</title>
<path fill="none" stroke="black" d="M153.7,-141.96C176.14,-133.93 200.41,-125.25 221.49,-117.71"/>
<polygon fill="black" stroke="black" points="222.7,-121 230.94,-114.33 220.35,-114.4 222.7,-121"/>
</g>
<!-- value_140452321373840 -->
<g id="node6" class="node">
<title>value_140452321373840</title>
<path fill="#dbeafe" stroke="#2563eb" d="M145,-124C145,-124 12,-124 12,-124 6,-124 0,-118 0,-112 0,-112 0,-83 0,-83 0,-77 6,-71 12,-71 12,-71 145,-71 145,-71 151,-71 157,-77 157,-83 157,-83 157,-112 157,-112 157,-118 151,-124 145,-124"/>
<text text-anchor="middle" x="78.5" y="-108.8" font-family="Helvetica,sans-Serif" font-size="14.00">Tensor</text>
<text text-anchor="middle" x="78.5" y="-93.8" font-family="Helvetica,sans-Serif" font-size="14.00">shape=2x4</text>
<text text-anchor="middle" x="78.5" y="-78.8" font-family="Helvetica,sans-Serif" font-size="14.00">dtype=torch.float32</text>
</g>
<!-- value_140452321373840&#45;&gt;op_140452325486816 -->
<g id="edge2" class="edge">
<title>value_140452321373840&#45;&gt;op_140452325486816</title>
<path fill="none" stroke="black" d="M157.1,-97.5C165.54,-97.5 174.2,-97.5 182.82,-97.5"/>
<polygon fill="black" stroke="black" points="182.9,-101 192.9,-97.5 182.9,-94 182.9,-101"/>
</g>
<!-- value_140457529496576 -->
<g id="node7" class="node">
<title>value_140457529496576</title>
<path fill="#dbeafe" stroke="#2563eb" d="M145,-53C145,-53 12,-53 12,-53 6,-53 0,-47 0,-41 0,-41 0,-12 0,-12 0,-6 6,0 12,0 12,0 145,0 145,0 151,0 157,-6 157,-12 157,-12 157,-41 157,-41 157,-47 151,-53 145,-53"/>
<text text-anchor="middle" x="78.5" y="-37.8" font-family="Helvetica,sans-Serif" font-size="14.00">Tensor</text>
<text text-anchor="middle" x="78.5" y="-22.8" font-family="Helvetica,sans-Serif" font-size="14.00">shape=2x4</text>
<text text-anchor="middle" x="78.5" y="-7.8" font-family="Helvetica,sans-Serif" font-size="14.00">dtype=torch.float32</text>
</g>
<!-- value_140457529496576&#45;&gt;op_140452325486816 -->
<g id="edge3" class="edge">
<title>value_140457529496576&#45;&gt;op_140452325486816</title>
<path fill="none" stroke="black" d="M153.7,-53.04C176.14,-61.07 200.41,-69.75 221.49,-77.29"/>
<polygon fill="black" stroke="black" points="220.35,-80.6 230.94,-80.67 222.7,-74 220.35,-80.6"/>
</g>
<!-- value_140452319712384 -->
<g id="node8" class="node">
<title>value_140452319712384</title>
<path fill="#dbeafe" stroke="#2563eb" d="M546,-53C546,-53 413,-53 413,-53 407,-53 401,-47 401,-41 401,-41 401,-12 401,-12 401,-6 407,0 413,0 413,0 546,0 546,0 552,0 558,-6 558,-12 558,-12 558,-41 558,-41 558,-47 552,-53 546,-53"/>
<text text-anchor="middle" x="479.5" y="-37.8" font-family="Helvetica,sans-Serif" font-size="14.00">Tensor</text>
<text text-anchor="middle" x="479.5" y="-22.8" font-family="Helvetica,sans-Serif" font-size="14.00">shape=2x4</text>
<text text-anchor="middle" x="479.5" y="-7.8" font-family="Helvetica,sans-Serif" font-size="14.00">dtype=torch.float32</text>
</g>
<!-- value_140452319712384&#45;&gt;op_140452325488832 -->
<g id="edge6" class="edge">
<title>value_140452319712384&#45;&gt;op_140452325488832</title>
<path fill="none" stroke="black" d="M558.25,-44C569.99,-46.64 581.73,-49.28 592.39,-51.69"/>
<polygon fill="black" stroke="black" points="591.73,-55.12 602.26,-53.91 593.27,-48.29 591.73,-55.12"/>
</g>
</g>
</svg>
